<svg width="33" height="33" viewBox="0 0 33 33" fill="none" xmlns="http://www.w3.org/2000/svg">
<mask id="mask0_956_132" style="mask-type:alpha" maskUnits="userSpaceOnUse" x="0" y="0" width="33" height="33">
<path d="M0 27.5V23.6844C0 22.9052 0.194792 22.1833 0.584375 21.5188C0.973958 20.8542 1.5125 20.35 2.2 20.0063C2.52083 19.8458 2.83021 19.6969 3.12813 19.5594C3.44896 19.4219 3.78125 19.2958 4.125 19.1813V27.5H0ZM5.5 17.875C4.35417 17.875 3.38021 17.474 2.57813 16.6719C1.77604 15.8698 1.375 14.8958 1.375 13.75C1.375 12.6042 1.77604 11.6302 2.57813 10.8281C3.38021 10.026 4.35417 9.625 5.5 9.625C6.64583 9.625 7.61979 10.026 8.42188 10.8281C9.22396 11.6302 9.625 12.6042 9.625 13.75C9.625 14.8958 9.22396 15.8698 8.42188 16.6719C7.61979 17.474 6.64583 17.875 5.5 17.875ZM5.5 15.125C5.88958 15.125 6.21042 14.999 6.4625 14.7469C6.7375 14.4719 6.875 14.1396 6.875 13.75C6.875 13.3604 6.7375 13.0396 6.4625 12.7875C6.21042 12.5125 5.88958 12.375 5.5 12.375C5.11042 12.375 4.77813 12.5125 4.50313 12.7875C4.25104 13.0396 4.125 13.3604 4.125 13.75C4.125 14.1396 4.25104 14.4719 4.50313 14.7469C4.77813 14.999 5.11042 15.125 5.5 15.125ZM5.5 27.5V23.65C5.5 22.8708 5.69479 22.1604 6.08438 21.5188C6.49688 20.8542 7.03542 20.35 7.7 20.0063C9.12083 19.2958 10.5646 18.7688 12.0312 18.425C13.4979 18.0583 14.9875 17.875 16.5 17.875C18.0125 17.875 19.5021 18.0583 20.9688 18.425C22.4354 18.7688 23.8792 19.2958 25.3 20.0063C25.9646 20.35 26.4917 20.8542 26.8813 21.5188C27.2938 22.1604 27.5 22.8708 27.5 23.65V27.5H5.5ZM8.25 24.75H24.75V23.65C24.75 23.3979 24.6813 23.1688 24.5438 22.9625C24.4292 22.7563 24.2688 22.5958 24.0625 22.4812C22.825 21.8625 21.576 21.4042 20.3156 21.1063C19.0552 20.7854 17.7833 20.625 16.5 20.625C15.2167 20.625 13.9448 20.7854 12.6844 21.1063C11.424 21.4042 10.175 21.8625 8.9375 22.4812C8.73125 22.5958 8.55937 22.7563 8.42188 22.9625C8.30729 23.1688 8.25 23.3979 8.25 23.65V24.75ZM16.5 16.5C14.9875 16.5 13.6927 15.9615 12.6156 14.8844C11.5385 13.8073 11 12.5125 11 11C11 9.4875 11.5385 8.19271 12.6156 7.11563C13.6927 6.03854 14.9875 5.5 16.5 5.5C18.0125 5.5 19.3073 6.03854 20.3844 7.11563C21.4615 8.19271 22 9.4875 22 11C22 12.5125 21.4615 13.8073 20.3844 14.8844C19.3073 15.9615 18.0125 16.5 16.5 16.5ZM16.5 13.75C17.2563 13.75 17.8979 13.4865 18.425 12.9594C18.975 12.4094 19.25 11.7563 19.25 11C19.25 10.2438 18.975 9.60208 18.425 9.075C17.8979 8.525 17.2563 8.25 16.5 8.25C15.7438 8.25 15.0906 8.525 14.5406 9.075C14.0135 9.60208 13.75 10.2438 13.75 11C13.75 11.7563 14.0135 12.4094 14.5406 12.9594C15.0906 13.4865 15.7438 13.75 16.5 13.75ZM27.5 17.875C26.3542 17.875 25.3802 17.474 24.5781 16.6719C23.776 15.8698 23.375 14.8958 23.375 13.75C23.375 12.6042 23.776 11.6302 24.5781 10.8281C25.3802 10.026 26.3542 9.625 27.5 9.625C28.6458 9.625 29.6198 10.026 30.4219 10.8281C31.224 11.6302 31.625 12.6042 31.625 13.75C31.625 14.8958 31.224 15.8698 30.4219 16.6719C29.6198 17.474 28.6458 17.875 27.5 17.875ZM27.5 15.125C27.8896 15.125 28.2104 14.999 28.4625 14.7469C28.7375 14.4719 28.875 14.1396 28.875 13.75C28.875 13.3604 28.7375 13.0396 28.4625 12.7875C28.2104 12.5125 27.8896 12.375 27.5 12.375C27.1104 12.375 26.7781 12.5125 26.5031 12.7875C26.251 13.0396 26.125 13.3604 26.125 13.75C26.125 14.1396 26.251 14.4719 26.5031 14.7469C26.7781 14.999 27.1104 15.125 27.5 15.125ZM28.875 27.5V19.1813C29.2188 19.2958 29.5396 19.4219 29.8375 19.5594C30.1583 19.6969 30.4792 19.8458 30.8 20.0063C31.4875 20.35 32.026 20.8542 32.4156 21.5188C32.8052 22.1833 33 22.9052 33 23.6844V27.5H28.875Z" fill="#1D1B20"/>
</mask>
<g mask="url(#mask0_956_132)">
<rect x="-7" y="-2" width="49" height="38" fill="black"/>
</g>
</svg>
