<svg width="131" height="16" viewBox="0 0 131 16" fill="none" xmlns="http://www.w3.org/2000/svg">
<path d="M-0.00213069 2.69283V0.664417H9.55469V2.69283H5.99219V12.3008H3.56037V2.69283H-0.00213069ZM11.7124 12.3008H9.07599L13.093 0.664417H16.2635L20.2749 12.3008H17.6385L14.7237 3.32351H14.6328L11.7124 12.3008ZM11.5476 7.72692H17.7749V9.64737H11.5476V7.72692ZM21.6754 0.664417H24.7095L27.9141 8.4826H28.0504L31.255 0.664417H34.2891V12.3008H31.9027V4.72692H31.8061L28.7947 12.244H27.1697L24.1584 4.69851H24.0618V12.3008H21.6754V0.664417ZM38.3217 12.3008H35.6854L39.7024 0.664417H42.8729L46.8842 12.3008H44.2479L41.3331 3.32351H41.2422L38.3217 12.3008ZM38.157 7.72692H44.3842V9.64737H38.157V7.72692ZM48.2848 12.3008V0.664417H52.8757C53.7545 0.664417 54.5045 0.821614 55.1257 1.13601C55.7507 1.44661 56.2261 1.8879 56.5518 2.45987C56.8814 3.02805 57.0462 3.69661 57.0462 4.46555C57.0462 5.23828 56.8795 5.90305 56.5462 6.45987C56.2128 7.0129 55.7299 7.43714 55.0973 7.7326C54.4685 8.02805 53.7071 8.17578 52.8132 8.17578H49.7393V6.19851H52.4155C52.8852 6.19851 53.2753 6.13411 53.5859 6.00533C53.8965 5.87654 54.1276 5.68336 54.2791 5.42578C54.4344 5.16821 54.5121 4.84813 54.5121 4.46555C54.5121 4.07919 54.4344 3.75343 54.2791 3.48828C54.1276 3.22313 53.8946 3.02237 53.5803 2.88601C53.2696 2.74586 52.8776 2.67578 52.4041 2.67578H50.745V12.3008H48.2848ZM54.5689 7.00533L57.4609 12.3008H54.745L51.9155 7.00533H54.5689ZM60.7905 12.3008H58.1541L62.1712 0.664417H65.3416L69.353 12.3008H66.7166L63.8018 3.32351H63.7109L60.7905 12.3008ZM60.6257 7.72692H66.853V9.64737H60.6257V7.72692Z" fill="black"/>
<path d="M74.4567 12.3008V0.664417H82.1612V2.69283H76.9169V5.46555H81.6499V7.49396H76.9169V12.3008H74.4567ZM87.0732 12.4712C86.1906 12.4712 85.4273 12.2837 84.7834 11.9087C84.1432 11.5299 83.6489 11.0034 83.3004 10.3292C82.9519 9.65116 82.7777 8.86518 82.7777 7.97124C82.7777 7.06972 82.9519 6.28184 83.3004 5.6076C83.6489 4.92957 84.1432 4.40305 84.7834 4.02805C85.4273 3.64927 86.1906 3.45987 87.0732 3.45987C87.9557 3.45987 88.7171 3.64927 89.3572 4.02805C90.0012 4.40305 90.4974 4.92957 90.8459 5.6076C91.1944 6.28184 91.3686 7.06972 91.3686 7.97124C91.3686 8.86518 91.1944 9.65116 90.8459 10.3292C90.4974 11.0034 90.0012 11.5299 89.3572 11.9087C88.7171 12.2837 87.9557 12.4712 87.0732 12.4712ZM87.0845 10.5962C87.486 10.5962 87.8213 10.4826 88.0902 10.2553C88.3591 10.0243 88.5618 9.70987 88.6982 9.31214C88.8383 8.91442 88.9084 8.46177 88.9084 7.95419C88.9084 7.44661 88.8383 6.99396 88.6982 6.59624C88.5618 6.19851 88.3591 5.88411 88.0902 5.65305C87.8213 5.42199 87.486 5.30646 87.0845 5.30646C86.6792 5.30646 86.3383 5.42199 86.0618 5.65305C85.7891 5.88411 85.5826 6.19851 85.4425 6.59624C85.3061 6.99396 85.2379 7.44661 85.2379 7.95419C85.2379 8.46177 85.3061 8.91442 85.4425 9.31214C85.5826 9.70987 85.7891 10.0243 86.0618 10.2553C86.3383 10.4826 86.6792 10.5962 87.0845 10.5962ZM92.9425 12.3008V3.57351H95.2891V5.09624H95.38C95.5391 4.55457 95.8061 4.14548 96.1811 3.86896C96.5561 3.58866 96.9879 3.44851 97.4766 3.44851C97.5978 3.44851 97.7285 3.45608 97.8686 3.47124C98.0088 3.48639 98.1319 3.50722 98.2379 3.53374V5.68146C98.1243 5.64737 97.9671 5.61707 97.7663 5.59055C97.5656 5.56404 97.3819 5.55078 97.2152 5.55078C96.8591 5.55078 96.541 5.62843 96.2607 5.78374C95.9841 5.93525 95.7644 6.14737 95.6016 6.4201C95.4425 6.69283 95.3629 7.00722 95.3629 7.36328V12.3008H92.9425ZM103.015 15.7553C102.231 15.7553 101.558 15.6474 100.998 15.4315C100.441 15.2193 99.9979 14.9296 99.6683 14.5621C99.3388 14.1947 99.1248 13.7818 99.0263 13.3235L101.265 13.0224C101.333 13.1966 101.441 13.3595 101.589 13.511C101.737 13.6625 101.932 13.7837 102.174 13.8746C102.42 13.9693 102.719 14.0167 103.072 14.0167C103.598 14.0167 104.032 13.8879 104.373 13.6303C104.718 13.3765 104.89 12.9504 104.89 12.3519V10.7553H104.788C104.682 10.9978 104.522 11.2269 104.31 11.4428C104.098 11.6587 103.826 11.8349 103.492 11.9712C103.159 12.1076 102.761 12.1758 102.299 12.1758C101.644 12.1758 101.047 12.0243 100.509 11.7212C99.9751 11.4144 99.549 10.9466 99.2308 10.3178C98.9164 9.68525 98.7592 8.88601 98.7592 7.9201C98.7592 6.93146 98.9202 6.10571 99.2422 5.44283C99.5642 4.77995 99.9922 4.28374 100.526 3.95419C101.064 3.62464 101.653 3.45987 102.293 3.45987C102.782 3.45987 103.191 3.54321 103.521 3.70987C103.85 3.87275 104.115 4.0773 104.316 4.32351C104.521 4.56593 104.678 4.80457 104.788 5.03942H104.879V3.57351H107.282V12.386C107.282 13.1284 107.1 13.7496 106.737 14.2496C106.373 14.7496 105.869 15.1246 105.225 15.3746C104.585 15.6284 103.848 15.7553 103.015 15.7553ZM103.066 10.3576C103.456 10.3576 103.786 10.261 104.055 10.0678C104.327 9.87086 104.536 9.59055 104.68 9.22692C104.827 8.85949 104.901 8.4201 104.901 7.90874C104.901 7.39737 104.829 6.95419 104.685 6.57919C104.541 6.2004 104.333 5.90684 104.06 5.69851C103.788 5.49017 103.456 5.38601 103.066 5.38601C102.668 5.38601 102.333 5.49396 102.06 5.70987C101.788 5.92199 101.581 6.21745 101.441 6.59624C101.301 6.97502 101.231 7.41252 101.231 7.90874C101.231 8.41252 101.301 8.84813 101.441 9.21555C101.585 9.57919 101.791 9.86139 102.06 10.0621C102.333 10.2591 102.668 10.3576 103.066 10.3576ZM109.208 12.3008V3.57351H111.629V12.3008H109.208ZM110.424 2.44851C110.064 2.44851 109.755 2.32919 109.498 2.09055C109.244 1.84813 109.117 1.55836 109.117 1.22124C109.117 0.887902 109.244 0.601917 109.498 0.363281C109.755 0.120857 110.064 -0.000355721 110.424 -0.000355721C110.784 -0.000355721 111.091 0.120857 111.344 0.363281C111.602 0.601917 111.731 0.887902 111.731 1.22124C111.731 1.55836 111.602 1.84813 111.344 2.09055C111.091 2.32919 110.784 2.44851 110.424 2.44851ZM121.704 3.57351L118.653 12.3008H115.925L112.874 3.57351H115.431L117.244 9.81783H117.335L119.141 3.57351H121.704ZM126.638 12.4712C125.741 12.4712 124.968 12.2894 124.32 11.9258C123.676 11.5584 123.18 11.0394 122.832 10.369C122.483 9.69472 122.309 8.89737 122.309 7.97692C122.309 7.07919 122.483 6.29131 122.832 5.61328C123.18 4.93525 123.671 4.40684 124.303 4.02805C124.94 3.64927 125.686 3.45987 126.542 3.45987C127.118 3.45987 127.654 3.55268 128.15 3.73828C128.65 3.9201 129.085 4.19472 129.457 4.56214C129.832 4.92957 130.123 5.39169 130.332 5.94851C130.54 6.50154 130.644 7.14927 130.644 7.89169V8.55646H123.275V7.05646H128.366C128.366 6.70798 128.29 6.39927 128.138 6.13033C127.987 5.86139 127.777 5.65116 127.508 5.49964C127.243 5.34434 126.934 5.26669 126.582 5.26669C126.214 5.26669 125.888 5.35192 125.604 5.52237C125.324 5.68904 125.104 5.91442 124.945 6.19851C124.786 6.47881 124.705 6.79131 124.701 7.13601V8.56214C124.701 8.99396 124.781 9.36707 124.94 9.68146C125.103 9.99586 125.332 10.2383 125.627 10.4087C125.923 10.5792 126.273 10.6644 126.678 10.6644C126.947 10.6644 127.193 10.6265 127.417 10.5508C127.64 10.475 127.832 10.3614 127.991 10.2099C128.15 10.0584 128.271 9.87275 128.354 9.65305L130.593 9.80078C130.479 10.3387 130.246 10.8084 129.894 11.2099C129.546 11.6076 129.095 11.9182 128.542 12.1417C127.993 12.3614 127.358 12.4712 126.638 12.4712Z" fill="#06E07F"/>
</svg>
